<?xml version="1.0" standalone="no"?>
<!DOCTYPE svg PUBLIC "-//W3C//DTD SVG 20010904//EN"
 "http://www.w3.org/TR/2001/REC-SVG-20010904/DTD/svg10.dtd">
<svg version="1.0" xmlns="http://www.w3.org/2000/svg"
 width="900.000000pt" height="480.000000pt" viewBox="0 0 900.000000 480.000000"
 preserveAspectRatio="xMidYMid meet">

<g transform="translate(0.000000,480.000000) scale(0.100000,-0.100000)"
fill="#000000" stroke="none">
<path d="M7176 4763 c-9 -55 9 -146 41 -204 32 -60 88 -111 155 -141 26 -12
48 -25 48 -30 0 -4 -47 -8 -105 -8 l-105 0 0 -200 0 -200 565 0 565 0 0 219 0
219 -262 4 c-260 3 -264 3 -319 29 -66 31 -95 59 -121 118 -21 47 -29 153 -15
204 l7 27 -224 0 -224 0 -6 -37z m1045 -508 c92 -48 90 -183 -3 -225 -54 -25
-62 -25 -114 0 -92 45 -98 167 -11 220 39 24 87 25 128 5z"/>
<path d="M8107 4229 c-29 -17 -49 -68 -43 -105 8 -39 57 -84 92 -84 55 0 104
47 104 101 0 28 -27 77 -49 89 -25 13 -81 12 -104 -1z m94 -19 c23 -13 25 -52
4 -70 -14 -12 -14 -15 0 -36 18 -28 19 -34 2 -34 -7 0 -21 14 -30 30 -10 17
-22 30 -28 30 -5 0 -9 -13 -9 -30 0 -20 -5 -30 -15 -30 -12 0 -15 14 -15 68 0
38 3 72 7 75 10 11 62 8 84 -3z"/>
<path d="M8140 4170 c0 -21 8 -24 34 -14 25 10 19 34 -9 34 -18 0 -25 -5 -25
-20z"/>
<path d="M7380 3814 c-176 -38 -336 -168 -422 -344 -57 -116 -77 -188 -84
-305 -20 -317 199 -575 532 -627 284 -44 537 139 651 472 88 257 61 474 -77
621 -27 29 -52 51 -54 48 -3 -3 -39 -92 -80 -198 l-75 -192 21 -40 c31 -61 23
-150 -20 -210 -40 -55 -94 -88 -159 -95 -49 -6 -103 8 -103 25 0 5 38 106 83
223 46 117 114 290 150 383 37 94 67 175 67 182 0 14 -105 49 -190 63 -86 13
-161 12 -240 -6z m55 -384 c10 -16 -137 -380 -154 -380 -27 0 -83 53 -103 98
-43 97 5 222 107 275 33 18 140 23 150 7z"/>
<path d="M6195 2948 c-77 -87 -140 -164 -140 -171 0 -13 47 -57 261 -247 l129
-115 -60 -6 c-86 -8 -165 -48 -241 -121 -208 -200 -182 -506 66 -757 250 -254
555 -290 772 -92 117 107 166 221 153 353 -3 37 -3 68 0 68 4 0 29 -19 57 -42
l50 -43 45 50 c25 28 84 94 131 149 l86 98 -50 47 c-27 25 -182 163 -343 306
-162 143 -396 350 -521 460 -124 110 -232 205 -240 211 -12 9 -41 -18 -155
-148z m519 -768 c60 -28 156 -121 180 -174 32 -67 32 -109 1 -171 -69 -142
-213 -142 -359 2 -97 94 -128 191 -87 271 51 100 152 127 265 72z"/>
<path d="M5460 1757 c-177 -60 -286 -177 -320 -344 -6 -29 -15 -51 -20 -48 -5
3 -25 34 -45 70 -20 36 -37 65 -39 65 -2 0 -77 -41 -167 -91 -90 -50 -169 -94
-176 -98 -8 -4 27 -78 114 -236 69 -127 180 -329 246 -450 66 -121 132 -241
146 -267 l26 -47 185 100 c102 55 189 104 194 109 8 8 -41 105 -238 465 -90
164 -98 240 -33 303 62 60 137 77 193 43 57 -35 88 -85 315 -506 32 -60 63
-116 68 -124 7 -11 47 8 191 88 100 55 187 101 192 101 19 0 -1 46 -103 230
-55 102 -130 239 -166 305 -80 146 -117 199 -188 264 -101 91 -236 116 -375
68z"/>
<path d="M3530 1623 c-113 -13 -207 -27 -209 -29 -3 -2 30 -321 72 -707 43
-386 81 -732 84 -769 7 -81 -21 -76 253 -45 l195 22 -2 35 c-2 19 -15 139 -29
265 -34 300 -36 408 -9 455 27 47 85 74 155 74 104 0 143 -52 165 -222 7 -59
24 -208 37 -331 17 -163 27 -225 37 -229 14 -5 422 35 429 43 8 8 -78 740 -94
800 -36 136 -122 244 -226 283 -112 42 -278 36 -384 -14 -44 -21 -134 -102
-153 -138 -28 -52 -28 -55 -61 259 -26 251 -30 275 -44 274 -6 -1 -103 -12
-216 -26z"/>
<path d="M2375 1195 c-96 -21 -168 -52 -244 -106 -158 -110 -241 -279 -241
-489 0 -275 141 -470 405 -557 73 -24 95 -27 240 -27 138 -1 171 2 238 22 194
56 322 159 371 300 l15 42 -210 0 -210 0 -37 -39 c-61 -65 -161 -77 -250 -32
-64 33 -105 93 -114 166 l-3 30 433 3 433 2 -7 78 c-34 388 -290 625 -672 621
-48 0 -114 -7 -147 -14z m228 -266 c70 -19 147 -108 147 -169 0 -19 -6 -20
-210 -20 l-210 0 6 28 c21 94 53 134 125 157 54 17 93 18 142 4z"/>
<path d="M712 1018 l3 -163 228 -3 c125 -1 227 -6 227 -10 0 -4 -115 -119
-255 -256 l-255 -248 0 -149 0 -149 550 0 550 0 -2 163 -3 162 -258 5 -257 5
245 245 245 245 0 157 0 158 -510 0 -510 0 2 -162z"/>
</g>
</svg>
