<?xml version="1.0" encoding="iso-8859-1"?>
<!-- Generator: Adobe Illustrator 19.0.0, SVG Export Plug-In . SVG Version: 6.00 Build 0)  -->
<svg version="1.1" id="Layer_1" xmlns="http://www.w3.org/2000/svg" xmlns:xlink="http://www.w3.org/1999/xlink" x="0px" y="0px"
	 viewBox="0 0 512.001 512.001" style="enable-background:new 0 0 512.001 512.001;" xml:space="preserve">
<g>
	<g>
		<path d="M507.111,255.326l-50.763-50.763V94.609c0-9.222-7.475-16.696-16.696-16.696H372.87c-9.22,0-16.696,7.475-16.696,16.696
			v9.78L267.805,16.02c-6.519-6.519-17.091-6.519-23.611,0C238.116,22.099,13.778,246.436,4.89,255.325
			c-6.52,6.519-6.52,17.091,0,23.611c6.519,6.519,17.091,6.519,23.611,0l27.152-27.15v232.389c0,9.22,7.475,16.696,16.696,16.696
			h367.304c9.22,0,16.696-7.475,16.696-16.696V251.785l27.152,27.152c6.52,6.52,17.091,6.52,23.611,0
			C513.631,272.418,513.631,261.846,507.111,255.326z M422.957,467.479H89.044V218.394L256.001,51.437
			c8.681,8.681,158.347,158.347,166.957,166.957V467.479z M422.957,171.172l-33.391-33.391v-26.476h33.391V171.172z"/>
	</g>
</g>
<g>
	<g>
		<path d="M256.001,166.957c-73.648,0-133.565,59.917-133.565,133.565s59.917,133.565,133.565,133.565
			s133.565-59.917,133.565-133.565S329.648,166.957,256.001,166.957z M155.827,300.522c0-34.777,17.816-65.466,44.797-83.433
			c-1.64,16.578,4.141,32.717,15.684,44.476c-9.862,10.046-15.959,23.8-15.959,38.956c0,12.275-9.986,22.261-22.261,22.261
			S155.827,312.797,155.827,300.522z M256.001,400.696c-34.776,0-65.466-17.817-83.433-44.798
			c16.511,1.635,32.672-4.096,44.476-15.683c10.046,9.862,23.8,15.959,38.957,15.959c12.275,0,22.261,9.986,22.261,22.261
			S268.275,400.696,256.001,400.696z M256.001,322.783c-12.275,0-22.261-9.986-22.261-22.261s9.986-22.261,22.261-22.261
			c12.275,0,22.261,9.986,22.261,22.261S268.275,322.783,256.001,322.783z M256.001,244.869c-12.275,0-22.261-9.986-22.261-22.261
			c0-12.275,9.986-22.261,22.261-22.261c34.776,0.001,65.465,17.816,83.433,44.798c-16.511-1.635-32.672,4.096-44.476,15.683
			C284.911,250.966,271.157,244.869,256.001,244.869z M311.377,383.955c1.64-16.578-4.141-32.717-15.684-44.476
			c9.862-10.046,15.959-23.8,15.959-38.957c0-12.275,9.986-22.261,22.261-22.261c12.275,0,22.261,9.986,22.261,22.261
			C356.174,335.298,338.358,365.987,311.377,383.955z"/>
	</g>
</g>
<g>
</g>
<g>
</g>
<g>
</g>
<g>
</g>
<g>
</g>
<g>
</g>
<g>
</g>
<g>
</g>
<g>
</g>
<g>
</g>
<g>
</g>
<g>
</g>
<g>
</g>
<g>
</g>
<g>
</g>
</svg>
